<mxfile host="app.diagrams.net" modified="2023-12-24T09:51:40.513Z" agent="Mozilla/5.0 (Windows NT 10.0; Win64; x64) AppleWebKit/537.36 (KHTML, like Gecko) Chrome/120.0.0.0 Safari/537.36" etag="Q0aSuQI7cuq9xsPaSpPb" version="22.1.11" type="google">
  <diagram name="第1頁" id="26RgG5cs8kUAEmPFcVmB">
    <mxGraphModel grid="1" page="1" gridSize="10" guides="1" tooltips="1" connect="1" arrows="1" fold="1" pageScale="1" pageWidth="827" pageHeight="1169" math="0" shadow="0">
      <root>
        <mxCell id="0" />
        <mxCell id="1" parent="0" />
        <mxCell id="RxzHx0sFtPPHSch3kArm-1" value="銷售記錄管理" style="rounded=0;whiteSpace=wrap;html=1;" vertex="1" parent="1">
          <mxGeometry x="140" y="170" width="120" height="30" as="geometry" />
        </mxCell>
        <mxCell id="RxzHx0sFtPPHSch3kArm-2" value="" style="endArrow=none;html=1;rounded=0;exitX=0;exitY=0;exitDx=0;exitDy=0;entryX=0.728;entryY=0.944;entryDx=0;entryDy=0;entryPerimeter=0;" edge="1" parent="1" source="RxzHx0sFtPPHSch3kArm-1" target="RxzHx0sFtPPHSch3kArm-6">
          <mxGeometry width="50" height="50" relative="1" as="geometry">
            <mxPoint x="180" y="140" as="sourcePoint" />
            <mxPoint x="230" y="90" as="targetPoint" />
          </mxGeometry>
        </mxCell>
        <mxCell id="RxzHx0sFtPPHSch3kArm-3" value="" style="endArrow=none;html=1;rounded=0;exitX=-0.002;exitY=0.386;exitDx=0;exitDy=0;exitPerimeter=0;entryX=1;entryY=0.5;entryDx=0;entryDy=0;" edge="1" parent="1" source="RxzHx0sFtPPHSch3kArm-1" target="RxzHx0sFtPPHSch3kArm-9">
          <mxGeometry width="50" height="50" relative="1" as="geometry">
            <mxPoint x="-60" y="220" as="sourcePoint" />
            <mxPoint x="-10" y="170" as="targetPoint" />
          </mxGeometry>
        </mxCell>
        <mxCell id="RxzHx0sFtPPHSch3kArm-4" value="" style="endArrow=none;html=1;rounded=0;entryX=0;entryY=1;entryDx=0;entryDy=0;exitX=0.964;exitY=0.346;exitDx=0;exitDy=0;exitPerimeter=0;" edge="1" parent="1" source="RxzHx0sFtPPHSch3kArm-10" target="RxzHx0sFtPPHSch3kArm-1">
          <mxGeometry width="50" height="50" relative="1" as="geometry">
            <mxPoint x="120" y="275" as="sourcePoint" />
            <mxPoint x="170" y="225" as="targetPoint" />
          </mxGeometry>
        </mxCell>
        <mxCell id="RxzHx0sFtPPHSch3kArm-5" value="" style="endArrow=none;html=1;rounded=0;entryX=1;entryY=0.5;entryDx=0;entryDy=0;exitX=0;exitY=0.5;exitDx=0;exitDy=0;" edge="1" parent="1" source="RxzHx0sFtPPHSch3kArm-1" target="RxzHx0sFtPPHSch3kArm-8">
          <mxGeometry width="50" height="50" relative="1" as="geometry">
            <mxPoint x="90" y="360" as="sourcePoint" />
            <mxPoint x="140" y="310" as="targetPoint" />
          </mxGeometry>
        </mxCell>
        <mxCell id="RxzHx0sFtPPHSch3kArm-6" value="商品編號" style="ellipse;whiteSpace=wrap;html=1;" vertex="1" parent="1">
          <mxGeometry x="50" y="70" width="120" height="40" as="geometry" />
        </mxCell>
        <mxCell id="RxzHx0sFtPPHSch3kArm-8" value="銷售數量" style="ellipse;whiteSpace=wrap;html=1;" vertex="1" parent="1">
          <mxGeometry x="-30" y="170" width="120" height="40" as="geometry" />
        </mxCell>
        <mxCell id="RxzHx0sFtPPHSch3kArm-9" value="商品名稱" style="ellipse;whiteSpace=wrap;html=1;" vertex="1" parent="1">
          <mxGeometry x="-20" y="110" width="120" height="40" as="geometry" />
        </mxCell>
        <mxCell id="RxzHx0sFtPPHSch3kArm-10" value="姓名" style="ellipse;whiteSpace=wrap;html=1;" vertex="1" parent="1">
          <mxGeometry x="10" y="230" width="120" height="40" as="geometry" />
        </mxCell>
        <mxCell id="RxzHx0sFtPPHSch3kArm-11" value="" style="endArrow=none;html=1;rounded=0;exitX=1;exitY=0.5;exitDx=0;exitDy=0;entryX=0;entryY=0.5;entryDx=0;entryDy=0;" edge="1" parent="1" source="RxzHx0sFtPPHSch3kArm-1" target="RxzHx0sFtPPHSch3kArm-12">
          <mxGeometry width="50" height="50" relative="1" as="geometry">
            <mxPoint x="270" y="190" as="sourcePoint" />
            <mxPoint x="440" y="185" as="targetPoint" />
          </mxGeometry>
        </mxCell>
        <mxCell id="RxzHx0sFtPPHSch3kArm-12" value="商品信息" style="rounded=0;whiteSpace=wrap;html=1;" vertex="1" parent="1">
          <mxGeometry x="380" y="170" width="120" height="30" as="geometry" />
        </mxCell>
        <mxCell id="RxzHx0sFtPPHSch3kArm-13" value="商品編號" style="ellipse;whiteSpace=wrap;html=1;" vertex="1" parent="1">
          <mxGeometry x="480" y="70" width="120" height="40" as="geometry" />
        </mxCell>
        <mxCell id="RxzHx0sFtPPHSch3kArm-14" value="商品名稱" style="ellipse;whiteSpace=wrap;html=1;" vertex="1" parent="1">
          <mxGeometry x="540" y="120" width="120" height="40" as="geometry" />
        </mxCell>
        <mxCell id="RxzHx0sFtPPHSch3kArm-15" value="" style="endArrow=none;html=1;rounded=0;entryX=0.354;entryY=0.989;entryDx=0;entryDy=0;entryPerimeter=0;exitX=0.956;exitY=-0.015;exitDx=0;exitDy=0;exitPerimeter=0;" edge="1" parent="1" source="RxzHx0sFtPPHSch3kArm-12" target="RxzHx0sFtPPHSch3kArm-13">
          <mxGeometry width="50" height="50" relative="1" as="geometry">
            <mxPoint x="480" y="160" as="sourcePoint" />
            <mxPoint x="530" y="110" as="targetPoint" />
          </mxGeometry>
        </mxCell>
        <mxCell id="RxzHx0sFtPPHSch3kArm-16" value="" style="endArrow=none;html=1;rounded=0;entryX=0;entryY=0.5;entryDx=0;entryDy=0;exitX=1;exitY=0.25;exitDx=0;exitDy=0;" edge="1" parent="1" source="RxzHx0sFtPPHSch3kArm-12" target="RxzHx0sFtPPHSch3kArm-14">
          <mxGeometry width="50" height="50" relative="1" as="geometry">
            <mxPoint x="500" y="230" as="sourcePoint" />
            <mxPoint x="550" y="180" as="targetPoint" />
          </mxGeometry>
        </mxCell>
        <mxCell id="RxzHx0sFtPPHSch3kArm-17" value="商品類型" style="ellipse;whiteSpace=wrap;html=1;" vertex="1" parent="1">
          <mxGeometry x="560" y="165" width="120" height="40" as="geometry" />
        </mxCell>
        <mxCell id="RxzHx0sFtPPHSch3kArm-18" value="" style="endArrow=none;html=1;rounded=0;entryX=0;entryY=0.5;entryDx=0;entryDy=0;exitX=1;exitY=0.5;exitDx=0;exitDy=0;" edge="1" parent="1" source="RxzHx0sFtPPHSch3kArm-12" target="RxzHx0sFtPPHSch3kArm-17">
          <mxGeometry width="50" height="50" relative="1" as="geometry">
            <mxPoint x="480" y="270" as="sourcePoint" />
            <mxPoint x="530" y="220" as="targetPoint" />
          </mxGeometry>
        </mxCell>
        <mxCell id="RxzHx0sFtPPHSch3kArm-19" value="商品圖片" style="ellipse;whiteSpace=wrap;html=1;" vertex="1" parent="1">
          <mxGeometry x="540" y="210" width="120" height="40" as="geometry" />
        </mxCell>
        <mxCell id="RxzHx0sFtPPHSch3kArm-20" value="" style="endArrow=none;html=1;rounded=0;entryX=1;entryY=1;entryDx=0;entryDy=0;exitX=0.014;exitY=0.4;exitDx=0;exitDy=0;exitPerimeter=0;" edge="1" parent="1" source="RxzHx0sFtPPHSch3kArm-19" target="RxzHx0sFtPPHSch3kArm-12">
          <mxGeometry width="50" height="50" relative="1" as="geometry">
            <mxPoint x="450" y="280" as="sourcePoint" />
            <mxPoint x="500" y="230" as="targetPoint" />
          </mxGeometry>
        </mxCell>
        <mxCell id="RxzHx0sFtPPHSch3kArm-21" value="" style="endArrow=none;html=1;rounded=0;entryX=0.5;entryY=1;entryDx=0;entryDy=0;exitX=0.5;exitY=0;exitDx=0;exitDy=0;" edge="1" parent="1" source="RxzHx0sFtPPHSch3kArm-29" target="RxzHx0sFtPPHSch3kArm-1">
          <mxGeometry width="50" height="50" relative="1" as="geometry">
            <mxPoint x="200" y="360" as="sourcePoint" />
            <mxPoint x="230" y="270" as="targetPoint" />
          </mxGeometry>
        </mxCell>
        <mxCell id="RxzHx0sFtPPHSch3kArm-22" value="管理" style="edgeLabel;html=1;align=center;verticalAlign=middle;resizable=0;points=[];" connectable="0" vertex="1" parent="RxzHx0sFtPPHSch3kArm-21">
          <mxGeometry x="-0.0543" relative="1" as="geometry">
            <mxPoint as="offset" />
          </mxGeometry>
        </mxCell>
        <mxCell id="RxzHx0sFtPPHSch3kArm-25" value="" style="endArrow=none;html=1;rounded=0;exitX=1;exitY=0.5;exitDx=0;exitDy=0;entryX=0;entryY=0.5;entryDx=0;entryDy=0;" edge="1" parent="1" source="RxzHx0sFtPPHSch3kArm-29" target="RxzHx0sFtPPHSch3kArm-30">
          <mxGeometry width="50" height="50" relative="1" as="geometry">
            <mxPoint x="290" y="390" as="sourcePoint" />
            <mxPoint x="340" y="340" as="targetPoint" />
          </mxGeometry>
        </mxCell>
        <mxCell id="RxzHx0sFtPPHSch3kArm-26" value="管理" style="edgeLabel;html=1;align=center;verticalAlign=middle;resizable=0;points=[];" connectable="0" vertex="1" parent="RxzHx0sFtPPHSch3kArm-25">
          <mxGeometry x="-0.0543" relative="1" as="geometry">
            <mxPoint as="offset" />
          </mxGeometry>
        </mxCell>
        <mxCell id="RxzHx0sFtPPHSch3kArm-27" value="" style="endArrow=none;html=1;rounded=0;entryX=0.5;entryY=1;entryDx=0;entryDy=0;exitX=0.5;exitY=0;exitDx=0;exitDy=0;" edge="1" parent="1" source="RxzHx0sFtPPHSch3kArm-30" target="RxzHx0sFtPPHSch3kArm-12">
          <mxGeometry width="50" height="50" relative="1" as="geometry">
            <mxPoint x="440" y="360" as="sourcePoint" />
            <mxPoint x="450" y="225" as="targetPoint" />
          </mxGeometry>
        </mxCell>
        <mxCell id="RxzHx0sFtPPHSch3kArm-28" value="管理" style="edgeLabel;html=1;align=center;verticalAlign=middle;resizable=0;points=[];" connectable="0" vertex="1" parent="RxzHx0sFtPPHSch3kArm-27">
          <mxGeometry x="-0.0543" relative="1" as="geometry">
            <mxPoint as="offset" />
          </mxGeometry>
        </mxCell>
        <mxCell id="RxzHx0sFtPPHSch3kArm-29" value="銷售記錄管理" style="rounded=0;whiteSpace=wrap;html=1;" vertex="1" parent="1">
          <mxGeometry x="140" y="360" width="120" height="30" as="geometry" />
        </mxCell>
        <mxCell id="RxzHx0sFtPPHSch3kArm-30" value="銷售記錄管理" style="rounded=0;whiteSpace=wrap;html=1;" vertex="1" parent="1">
          <mxGeometry x="380" y="360" width="120" height="30" as="geometry" />
        </mxCell>
        <mxCell id="RxzHx0sFtPPHSch3kArm-31" value="賬號" style="ellipse;whiteSpace=wrap;html=1;" vertex="1" parent="1">
          <mxGeometry x="50" y="410" width="60" height="30" as="geometry" />
        </mxCell>
        <mxCell id="RxzHx0sFtPPHSch3kArm-32" value="" style="endArrow=none;html=1;rounded=0;entryX=0.5;entryY=1;entryDx=0;entryDy=0;exitX=1;exitY=0;exitDx=0;exitDy=0;" edge="1" parent="1" source="RxzHx0sFtPPHSch3kArm-31" target="RxzHx0sFtPPHSch3kArm-29">
          <mxGeometry width="50" height="50" relative="1" as="geometry">
            <mxPoint x="50" y="430" as="sourcePoint" />
            <mxPoint x="100" y="380" as="targetPoint" />
          </mxGeometry>
        </mxCell>
        <mxCell id="RxzHx0sFtPPHSch3kArm-33" value="密碼" style="ellipse;whiteSpace=wrap;html=1;" vertex="1" parent="1">
          <mxGeometry x="140" y="420" width="60" height="30" as="geometry" />
        </mxCell>
        <mxCell id="RxzHx0sFtPPHSch3kArm-34" value="" style="endArrow=none;html=1;rounded=0;entryX=0.5;entryY=1;entryDx=0;entryDy=0;exitX=0.5;exitY=0;exitDx=0;exitDy=0;" edge="1" parent="1" source="RxzHx0sFtPPHSch3kArm-33" target="RxzHx0sFtPPHSch3kArm-29">
          <mxGeometry width="50" height="50" relative="1" as="geometry">
            <mxPoint x="70" y="510" as="sourcePoint" />
            <mxPoint x="120" y="460" as="targetPoint" />
          </mxGeometry>
        </mxCell>
        <mxCell id="RxzHx0sFtPPHSch3kArm-35" value="管理" style="rhombus;whiteSpace=wrap;html=1;" vertex="1" parent="1">
          <mxGeometry x="220" y="420" width="80" height="40" as="geometry" />
        </mxCell>
        <mxCell id="RxzHx0sFtPPHSch3kArm-36" value="" style="endArrow=none;html=1;rounded=0;entryX=0.5;entryY=1;entryDx=0;entryDy=0;exitX=0.5;exitY=0;exitDx=0;exitDy=0;" edge="1" parent="1" source="RxzHx0sFtPPHSch3kArm-35" target="RxzHx0sFtPPHSch3kArm-29">
          <mxGeometry width="50" height="50" relative="1" as="geometry">
            <mxPoint x="300" y="480" as="sourcePoint" />
            <mxPoint x="350" y="430" as="targetPoint" />
          </mxGeometry>
        </mxCell>
        <mxCell id="RxzHx0sFtPPHSch3kArm-37" value="分析" style="rhombus;whiteSpace=wrap;html=1;" vertex="1" parent="1">
          <mxGeometry x="380" y="420" width="80" height="40" as="geometry" />
        </mxCell>
        <mxCell id="RxzHx0sFtPPHSch3kArm-38" value="銷售員編號" style="ellipse;whiteSpace=wrap;html=1;" vertex="1" parent="1">
          <mxGeometry x="500" y="280" width="80" height="40" as="geometry" />
        </mxCell>
        <mxCell id="RxzHx0sFtPPHSch3kArm-39" value="姓名" style="ellipse;whiteSpace=wrap;html=1;" vertex="1" parent="1">
          <mxGeometry x="520" y="330" width="80" height="40" as="geometry" />
        </mxCell>
        <mxCell id="RxzHx0sFtPPHSch3kArm-40" value="性別" style="ellipse;whiteSpace=wrap;html=1;" vertex="1" parent="1">
          <mxGeometry x="520" y="380" width="80" height="40" as="geometry" />
        </mxCell>
        <mxCell id="RxzHx0sFtPPHSch3kArm-41" value="年齡" style="ellipse;whiteSpace=wrap;html=1;" vertex="1" parent="1">
          <mxGeometry x="493" y="420" width="80" height="40" as="geometry" />
        </mxCell>
        <mxCell id="RxzHx0sFtPPHSch3kArm-42" value="" style="endArrow=none;html=1;rounded=0;entryX=0;entryY=0.5;entryDx=0;entryDy=0;exitX=0.857;exitY=-0.014;exitDx=0;exitDy=0;exitPerimeter=0;" edge="1" parent="1" source="RxzHx0sFtPPHSch3kArm-30" target="RxzHx0sFtPPHSch3kArm-38">
          <mxGeometry width="50" height="50" relative="1" as="geometry">
            <mxPoint x="450" y="380" as="sourcePoint" />
            <mxPoint x="500" y="330" as="targetPoint" />
          </mxGeometry>
        </mxCell>
        <mxCell id="RxzHx0sFtPPHSch3kArm-43" value="" style="endArrow=none;html=1;rounded=0;entryX=0;entryY=0.5;entryDx=0;entryDy=0;exitX=1;exitY=0.25;exitDx=0;exitDy=0;" edge="1" parent="1" source="RxzHx0sFtPPHSch3kArm-30" target="RxzHx0sFtPPHSch3kArm-39">
          <mxGeometry width="50" height="50" relative="1" as="geometry">
            <mxPoint x="440" y="370" as="sourcePoint" />
            <mxPoint x="490" y="320" as="targetPoint" />
          </mxGeometry>
        </mxCell>
        <mxCell id="RxzHx0sFtPPHSch3kArm-44" value="" style="endArrow=none;html=1;rounded=0;entryX=1;entryY=0.75;entryDx=0;entryDy=0;exitX=0;exitY=0.5;exitDx=0;exitDy=0;" edge="1" parent="1" source="RxzHx0sFtPPHSch3kArm-40" target="RxzHx0sFtPPHSch3kArm-30">
          <mxGeometry width="50" height="50" relative="1" as="geometry">
            <mxPoint x="460" y="440" as="sourcePoint" />
            <mxPoint x="510" y="390" as="targetPoint" />
          </mxGeometry>
        </mxCell>
        <mxCell id="RxzHx0sFtPPHSch3kArm-45" value="" style="endArrow=none;html=1;rounded=0;entryX=0.75;entryY=1;entryDx=0;entryDy=0;exitX=0;exitY=0;exitDx=0;exitDy=0;" edge="1" parent="1" source="RxzHx0sFtPPHSch3kArm-41" target="RxzHx0sFtPPHSch3kArm-30">
          <mxGeometry width="50" height="50" relative="1" as="geometry">
            <mxPoint x="420" y="510" as="sourcePoint" />
            <mxPoint x="470" y="460" as="targetPoint" />
          </mxGeometry>
        </mxCell>
        <mxCell id="RxzHx0sFtPPHSch3kArm-46" value="" style="endArrow=none;html=1;rounded=0;entryX=0.5;entryY=1;entryDx=0;entryDy=0;exitX=0.5;exitY=0;exitDx=0;exitDy=0;" edge="1" parent="1" source="RxzHx0sFtPPHSch3kArm-37" target="RxzHx0sFtPPHSch3kArm-30">
          <mxGeometry width="50" height="50" relative="1" as="geometry">
            <mxPoint x="390" y="450" as="sourcePoint" />
            <mxPoint x="440" y="400" as="targetPoint" />
          </mxGeometry>
        </mxCell>
        <mxCell id="RxzHx0sFtPPHSch3kArm-47" value="會員等級" style="rounded=0;whiteSpace=wrap;html=1;" vertex="1" parent="1">
          <mxGeometry x="300" y="480" width="70" height="30" as="geometry" />
        </mxCell>
        <mxCell id="RxzHx0sFtPPHSch3kArm-48" value="" style="endArrow=none;html=1;rounded=0;exitX=0.5;exitY=0;exitDx=0;exitDy=0;" edge="1" parent="1" source="RxzHx0sFtPPHSch3kArm-47">
          <mxGeometry width="50" height="50" relative="1" as="geometry">
            <mxPoint x="330" y="490" as="sourcePoint" />
            <mxPoint x="380" y="440" as="targetPoint" />
          </mxGeometry>
        </mxCell>
        <mxCell id="RxzHx0sFtPPHSch3kArm-49" value="" style="endArrow=none;html=1;rounded=0;entryX=1;entryY=0.5;entryDx=0;entryDy=0;exitX=0.5;exitY=0;exitDx=0;exitDy=0;" edge="1" parent="1" source="RxzHx0sFtPPHSch3kArm-47" target="RxzHx0sFtPPHSch3kArm-35">
          <mxGeometry width="50" height="50" relative="1" as="geometry">
            <mxPoint x="340" y="500" as="sourcePoint" />
            <mxPoint x="390" y="450" as="targetPoint" />
          </mxGeometry>
        </mxCell>
        <mxCell id="RxzHx0sFtPPHSch3kArm-50" value="會員等級" style="ellipse;whiteSpace=wrap;html=1;" vertex="1" parent="1">
          <mxGeometry x="230" y="530" width="60" height="30" as="geometry" />
        </mxCell>
        <mxCell id="RxzHx0sFtPPHSch3kArm-51" value="智能推薦" style="ellipse;whiteSpace=wrap;html=1;" vertex="1" parent="1">
          <mxGeometry x="300" y="540" width="60" height="30" as="geometry" />
        </mxCell>
        <mxCell id="RxzHx0sFtPPHSch3kArm-52" value="創建時間" style="ellipse;whiteSpace=wrap;html=1;" vertex="1" parent="1">
          <mxGeometry x="380" y="530" width="60" height="30" as="geometry" />
        </mxCell>
        <mxCell id="RxzHx0sFtPPHSch3kArm-53" value="" style="endArrow=none;html=1;rounded=0;entryX=0;entryY=1;entryDx=0;entryDy=0;exitX=0.5;exitY=0;exitDx=0;exitDy=0;" edge="1" parent="1" source="RxzHx0sFtPPHSch3kArm-50" target="RxzHx0sFtPPHSch3kArm-47">
          <mxGeometry width="50" height="50" relative="1" as="geometry">
            <mxPoint x="220" y="560" as="sourcePoint" />
            <mxPoint x="270" y="510" as="targetPoint" />
          </mxGeometry>
        </mxCell>
        <mxCell id="RxzHx0sFtPPHSch3kArm-54" value="" style="endArrow=none;html=1;rounded=0;entryX=0.5;entryY=1;entryDx=0;entryDy=0;exitX=0.5;exitY=0;exitDx=0;exitDy=0;" edge="1" parent="1" source="RxzHx0sFtPPHSch3kArm-51" target="RxzHx0sFtPPHSch3kArm-47">
          <mxGeometry width="50" height="50" relative="1" as="geometry">
            <mxPoint x="100" y="590" as="sourcePoint" />
            <mxPoint x="150" y="540" as="targetPoint" />
          </mxGeometry>
        </mxCell>
        <mxCell id="RxzHx0sFtPPHSch3kArm-55" value="" style="endArrow=none;html=1;rounded=0;entryX=1;entryY=1;entryDx=0;entryDy=0;exitX=0;exitY=0;exitDx=0;exitDy=0;" edge="1" parent="1" source="RxzHx0sFtPPHSch3kArm-52" target="RxzHx0sFtPPHSch3kArm-47">
          <mxGeometry width="50" height="50" relative="1" as="geometry">
            <mxPoint x="380" y="620" as="sourcePoint" />
            <mxPoint x="430" y="570" as="targetPoint" />
          </mxGeometry>
        </mxCell>
        <mxCell id="RxzHx0sFtPPHSch3kArm-56" value="銷售人員" style="rounded=0;whiteSpace=wrap;html=1;" vertex="1" parent="1">
          <mxGeometry x="190" y="920" width="120" height="30" as="geometry" />
        </mxCell>
        <mxCell id="RxzHx0sFtPPHSch3kArm-58" value="姓名" style="ellipse;whiteSpace=wrap;html=1;" vertex="1" parent="1">
          <mxGeometry x="130" y="840" width="80" height="40" as="geometry" />
        </mxCell>
        <mxCell id="RxzHx0sFtPPHSch3kArm-59" value="性別" style="ellipse;whiteSpace=wrap;html=1;" vertex="1" parent="1">
          <mxGeometry x="210" y="830" width="80" height="40" as="geometry" />
        </mxCell>
        <mxCell id="RxzHx0sFtPPHSch3kArm-60" value="年齡" style="ellipse;whiteSpace=wrap;html=1;" vertex="1" parent="1">
          <mxGeometry x="290" y="840" width="80" height="40" as="geometry" />
        </mxCell>
        <mxCell id="RxzHx0sFtPPHSch3kArm-61" value="銷售人員編號" style="ellipse;whiteSpace=wrap;html=1;" vertex="1" parent="1">
          <mxGeometry x="100" y="880" width="80" height="40" as="geometry" />
        </mxCell>
        <mxCell id="RxzHx0sFtPPHSch3kArm-62" value="審核狀態" style="ellipse;whiteSpace=wrap;html=1;" vertex="1" parent="1">
          <mxGeometry x="350" y="870" width="80" height="40" as="geometry" />
        </mxCell>
        <mxCell id="RxzHx0sFtPPHSch3kArm-63" value="用戶ID" style="ellipse;whiteSpace=wrap;html=1;" vertex="1" parent="1">
          <mxGeometry x="350" y="910" width="80" height="40" as="geometry" />
        </mxCell>
        <mxCell id="RxzHx0sFtPPHSch3kArm-64" value="" style="endArrow=none;html=1;rounded=0;entryX=1;entryY=0.5;entryDx=0;entryDy=0;exitX=0;exitY=0;exitDx=0;exitDy=0;" edge="1" parent="1" source="RxzHx0sFtPPHSch3kArm-56" target="RxzHx0sFtPPHSch3kArm-61">
          <mxGeometry width="50" height="50" relative="1" as="geometry">
            <mxPoint x="120" y="1020" as="sourcePoint" />
            <mxPoint x="170" y="970" as="targetPoint" />
          </mxGeometry>
        </mxCell>
        <mxCell id="RxzHx0sFtPPHSch3kArm-65" value="" style="endArrow=none;html=1;rounded=0;entryX=1;entryY=1;entryDx=0;entryDy=0;exitX=0.25;exitY=0;exitDx=0;exitDy=0;" edge="1" parent="1" source="RxzHx0sFtPPHSch3kArm-56" target="RxzHx0sFtPPHSch3kArm-58">
          <mxGeometry width="50" height="50" relative="1" as="geometry">
            <mxPoint x="130" y="1010" as="sourcePoint" />
            <mxPoint x="180" y="960" as="targetPoint" />
          </mxGeometry>
        </mxCell>
        <mxCell id="RxzHx0sFtPPHSch3kArm-66" value="" style="endArrow=none;html=1;rounded=0;entryX=0.5;entryY=1;entryDx=0;entryDy=0;exitX=0.5;exitY=0;exitDx=0;exitDy=0;" edge="1" parent="1" source="RxzHx0sFtPPHSch3kArm-56" target="RxzHx0sFtPPHSch3kArm-59">
          <mxGeometry width="50" height="50" relative="1" as="geometry">
            <mxPoint x="120" y="1030" as="sourcePoint" />
            <mxPoint x="170" y="980" as="targetPoint" />
          </mxGeometry>
        </mxCell>
        <mxCell id="RxzHx0sFtPPHSch3kArm-67" value="" style="endArrow=none;html=1;rounded=0;entryX=0;entryY=1;entryDx=0;entryDy=0;exitX=0.75;exitY=0;exitDx=0;exitDy=0;" edge="1" parent="1" source="RxzHx0sFtPPHSch3kArm-56" target="RxzHx0sFtPPHSch3kArm-60">
          <mxGeometry width="50" height="50" relative="1" as="geometry">
            <mxPoint x="170" y="1050" as="sourcePoint" />
            <mxPoint x="220" y="1000" as="targetPoint" />
          </mxGeometry>
        </mxCell>
        <mxCell id="RxzHx0sFtPPHSch3kArm-68" value="" style="endArrow=none;html=1;rounded=0;entryX=0;entryY=0.5;entryDx=0;entryDy=0;entryPerimeter=0;exitX=1;exitY=0;exitDx=0;exitDy=0;" edge="1" parent="1" source="RxzHx0sFtPPHSch3kArm-56" target="RxzHx0sFtPPHSch3kArm-62">
          <mxGeometry width="50" height="50" relative="1" as="geometry">
            <mxPoint x="260" y="1040" as="sourcePoint" />
            <mxPoint x="310" y="990" as="targetPoint" />
          </mxGeometry>
        </mxCell>
        <mxCell id="RxzHx0sFtPPHSch3kArm-69" value="" style="endArrow=none;html=1;rounded=0;entryX=0;entryY=0.5;entryDx=0;entryDy=0;exitX=1;exitY=0.5;exitDx=0;exitDy=0;" edge="1" parent="1" source="RxzHx0sFtPPHSch3kArm-56" target="RxzHx0sFtPPHSch3kArm-63">
          <mxGeometry width="50" height="50" relative="1" as="geometry">
            <mxPoint x="260" y="1040" as="sourcePoint" />
            <mxPoint x="310" y="990" as="targetPoint" />
          </mxGeometry>
        </mxCell>
        <mxCell id="RxzHx0sFtPPHSch3kArm-70" value="商品信息管理" style="rounded=0;whiteSpace=wrap;html=1;" vertex="1" parent="1">
          <mxGeometry x="-270" y="910" width="120" height="30" as="geometry" />
        </mxCell>
        <mxCell id="RxzHx0sFtPPHSch3kArm-77" value="" style="endArrow=none;html=1;rounded=0;entryX=0.686;entryY=0.958;entryDx=0;entryDy=0;exitX=0;exitY=0;exitDx=0;exitDy=0;entryPerimeter=0;" edge="1" parent="1" source="RxzHx0sFtPPHSch3kArm-70" target="RxzHx0sFtPPHSch3kArm-84">
          <mxGeometry width="50" height="50" relative="1" as="geometry">
            <mxPoint x="-340" y="1010" as="sourcePoint" />
            <mxPoint x="-280.0000000000002" y="890" as="targetPoint" />
          </mxGeometry>
        </mxCell>
        <mxCell id="RxzHx0sFtPPHSch3kArm-78" value="" style="endArrow=none;html=1;rounded=0;entryX=1.017;entryY=0.558;entryDx=0;entryDy=0;exitX=0;exitY=0.5;exitDx=0;exitDy=0;entryPerimeter=0;" edge="1" parent="1" source="RxzHx0sFtPPHSch3kArm-70" target="RxzHx0sFtPPHSch3kArm-83">
          <mxGeometry width="50" height="50" relative="1" as="geometry">
            <mxPoint x="-330" y="1000" as="sourcePoint" />
            <mxPoint x="-261.715728752529" y="864.1421356237356" as="targetPoint" />
          </mxGeometry>
        </mxCell>
        <mxCell id="RxzHx0sFtPPHSch3kArm-79" value="" style="endArrow=none;html=1;rounded=0;entryX=0.5;entryY=1;entryDx=0;entryDy=0;exitX=0.5;exitY=0;exitDx=0;exitDy=0;" edge="1" parent="1" source="RxzHx0sFtPPHSch3kArm-70" target="RxzHx0sFtPPHSch3kArm-85">
          <mxGeometry width="50" height="50" relative="1" as="geometry">
            <mxPoint x="-340" y="1020" as="sourcePoint" />
            <mxPoint x="-209.99999999999977" y="860" as="targetPoint" />
          </mxGeometry>
        </mxCell>
        <mxCell id="RxzHx0sFtPPHSch3kArm-80" value="" style="endArrow=none;html=1;rounded=0;entryX=0.5;entryY=1;entryDx=0;entryDy=0;exitX=0.572;exitY=0.002;exitDx=0;exitDy=0;exitPerimeter=0;" edge="1" parent="1" source="RxzHx0sFtPPHSch3kArm-70" target="RxzHx0sFtPPHSch3kArm-86">
          <mxGeometry width="50" height="50" relative="1" as="geometry">
            <mxPoint x="-290" y="1040" as="sourcePoint" />
            <mxPoint x="-158.28427124747077" y="864.1421356237356" as="targetPoint" />
          </mxGeometry>
        </mxCell>
        <mxCell id="RxzHx0sFtPPHSch3kArm-81" value="" style="endArrow=none;html=1;rounded=0;entryX=0.271;entryY=0.927;entryDx=0;entryDy=0;entryPerimeter=0;exitX=1;exitY=0;exitDx=0;exitDy=0;" edge="1" parent="1" source="RxzHx0sFtPPHSch3kArm-70" target="RxzHx0sFtPPHSch3kArm-88">
          <mxGeometry width="50" height="50" relative="1" as="geometry">
            <mxPoint x="-200" y="1030" as="sourcePoint" />
            <mxPoint x="-109.99999999999977" y="880" as="targetPoint" />
          </mxGeometry>
        </mxCell>
        <mxCell id="RxzHx0sFtPPHSch3kArm-82" value="" style="endArrow=none;html=1;rounded=0;entryX=0;entryY=0.5;entryDx=0;entryDy=0;" edge="1" parent="1" target="RxzHx0sFtPPHSch3kArm-92">
          <mxGeometry width="50" height="50" relative="1" as="geometry">
            <mxPoint x="-150" y="910" as="sourcePoint" />
            <mxPoint x="-110.00000000000637" y="920" as="targetPoint" />
          </mxGeometry>
        </mxCell>
        <mxCell id="RxzHx0sFtPPHSch3kArm-83" value="商品編號" style="ellipse;whiteSpace=wrap;html=1;" vertex="1" parent="1">
          <mxGeometry x="-370" y="880" width="60" height="40" as="geometry" />
        </mxCell>
        <mxCell id="RxzHx0sFtPPHSch3kArm-84" value="商品名稱" style="ellipse;whiteSpace=wrap;html=1;" vertex="1" parent="1">
          <mxGeometry x="-350" y="840" width="60" height="40" as="geometry" />
        </mxCell>
        <mxCell id="RxzHx0sFtPPHSch3kArm-85" value="商品類型" style="ellipse;whiteSpace=wrap;html=1;" vertex="1" parent="1">
          <mxGeometry x="-310" y="810" width="60" height="40" as="geometry" />
        </mxCell>
        <mxCell id="RxzHx0sFtPPHSch3kArm-86" value="商品圖片" style="ellipse;whiteSpace=wrap;html=1;" vertex="1" parent="1">
          <mxGeometry x="-250" y="800" width="60" height="40" as="geometry" />
        </mxCell>
        <mxCell id="RxzHx0sFtPPHSch3kArm-87" value="商品庫存" style="ellipse;whiteSpace=wrap;html=1;" vertex="1" parent="1">
          <mxGeometry x="-190" y="800" width="60" height="40" as="geometry" />
        </mxCell>
        <mxCell id="RxzHx0sFtPPHSch3kArm-88" value="商品價格" style="ellipse;whiteSpace=wrap;html=1;" vertex="1" parent="1">
          <mxGeometry x="-130" y="810" width="60" height="40" as="geometry" />
        </mxCell>
        <mxCell id="RxzHx0sFtPPHSch3kArm-89" value="商品詳情" style="ellipse;whiteSpace=wrap;html=1;" vertex="1" parent="1">
          <mxGeometry x="-100" y="890" width="60" height="40" as="geometry" />
        </mxCell>
        <mxCell id="RxzHx0sFtPPHSch3kArm-91" value="" style="endArrow=none;html=1;rounded=0;exitX=0.636;exitY=0.019;exitDx=0;exitDy=0;exitPerimeter=0;entryX=0.422;entryY=0.991;entryDx=0;entryDy=0;entryPerimeter=0;" edge="1" parent="1" source="RxzHx0sFtPPHSch3kArm-70" target="RxzHx0sFtPPHSch3kArm-87">
          <mxGeometry width="50" height="50" relative="1" as="geometry">
            <mxPoint x="-180" y="905" as="sourcePoint" />
            <mxPoint x="-160" y="850" as="targetPoint" />
          </mxGeometry>
        </mxCell>
        <mxCell id="RxzHx0sFtPPHSch3kArm-92" value="商品規格" style="ellipse;whiteSpace=wrap;html=1;" vertex="1" parent="1">
          <mxGeometry x="-100" y="850" width="60" height="40" as="geometry" />
        </mxCell>
        <mxCell id="RxzHx0sFtPPHSch3kArm-93" value="" style="endArrow=none;html=1;rounded=0;entryX=0;entryY=0.5;entryDx=0;entryDy=0;exitX=1;exitY=0.353;exitDx=0;exitDy=0;exitPerimeter=0;" edge="1" parent="1" source="RxzHx0sFtPPHSch3kArm-70" target="RxzHx0sFtPPHSch3kArm-89">
          <mxGeometry width="50" height="50" relative="1" as="geometry">
            <mxPoint x="-140" y="920" as="sourcePoint" />
            <mxPoint x="-90" y="880" as="targetPoint" />
          </mxGeometry>
        </mxCell>
        <mxCell id="RxzHx0sFtPPHSch3kArm-94" value="會員等級" style="rounded=0;whiteSpace=wrap;html=1;" vertex="1" parent="1">
          <mxGeometry x="-250" y="640" width="70" height="30" as="geometry" />
        </mxCell>
        <mxCell id="RxzHx0sFtPPHSch3kArm-97" value="會員等級" style="ellipse;whiteSpace=wrap;html=1;" vertex="1" parent="1">
          <mxGeometry x="-290" y="570" width="60" height="30" as="geometry" />
        </mxCell>
        <mxCell id="RxzHx0sFtPPHSch3kArm-99" value="會員名稱" style="ellipse;whiteSpace=wrap;html=1;" vertex="1" parent="1">
          <mxGeometry x="-330" y="600" width="60" height="30" as="geometry" />
        </mxCell>
        <mxCell id="RxzHx0sFtPPHSch3kArm-100" value="會員編號" style="ellipse;whiteSpace=wrap;html=1;" vertex="1" parent="1">
          <mxGeometry x="-330" y="640" width="60" height="30" as="geometry" />
        </mxCell>
        <mxCell id="RxzHx0sFtPPHSch3kArm-102" value="會員積分" style="ellipse;whiteSpace=wrap;html=1;" vertex="1" parent="1">
          <mxGeometry x="-220" y="560" width="60" height="30" as="geometry" />
        </mxCell>
        <mxCell id="RxzHx0sFtPPHSch3kArm-103" value="備註" style="ellipse;whiteSpace=wrap;html=1;" vertex="1" parent="1">
          <mxGeometry x="-150" y="570" width="60" height="30" as="geometry" />
        </mxCell>
        <mxCell id="RxzHx0sFtPPHSch3kArm-105" value="創建時間" style="ellipse;whiteSpace=wrap;html=1;" vertex="1" parent="1">
          <mxGeometry x="-130" y="600" width="60" height="30" as="geometry" />
        </mxCell>
        <mxCell id="RxzHx0sFtPPHSch3kArm-106" value="更新時間" style="ellipse;whiteSpace=wrap;html=1;" vertex="1" parent="1">
          <mxGeometry x="-150" y="640" width="60" height="30" as="geometry" />
        </mxCell>
        <mxCell id="RxzHx0sFtPPHSch3kArm-107" value="" style="endArrow=none;html=1;rounded=0;exitX=0.003;exitY=0.421;exitDx=0;exitDy=0;exitPerimeter=0;entryX=1;entryY=0.5;entryDx=0;entryDy=0;" edge="1" parent="1" source="RxzHx0sFtPPHSch3kArm-94" target="RxzHx0sFtPPHSch3kArm-99">
          <mxGeometry width="50" height="50" relative="1" as="geometry">
            <mxPoint x="-150" y="620" as="sourcePoint" />
            <mxPoint x="-100" y="570" as="targetPoint" />
          </mxGeometry>
        </mxCell>
        <mxCell id="RxzHx0sFtPPHSch3kArm-108" value="" style="endArrow=none;html=1;rounded=0;entryX=0;entryY=0.5;entryDx=0;entryDy=0;exitX=1;exitY=0.5;exitDx=0;exitDy=0;" edge="1" parent="1" source="RxzHx0sFtPPHSch3kArm-100" target="RxzHx0sFtPPHSch3kArm-94">
          <mxGeometry width="50" height="50" relative="1" as="geometry">
            <mxPoint x="-420" y="710" as="sourcePoint" />
            <mxPoint x="-370" y="660" as="targetPoint" />
          </mxGeometry>
        </mxCell>
        <mxCell id="RxzHx0sFtPPHSch3kArm-109" value="" style="endArrow=none;html=1;rounded=0;entryX=0.792;entryY=0.931;entryDx=0;entryDy=0;entryPerimeter=0;exitX=0;exitY=0;exitDx=0;exitDy=0;" edge="1" parent="1" source="RxzHx0sFtPPHSch3kArm-94" target="RxzHx0sFtPPHSch3kArm-97">
          <mxGeometry width="50" height="50" relative="1" as="geometry">
            <mxPoint x="-300" y="730" as="sourcePoint" />
            <mxPoint x="-250" y="680" as="targetPoint" />
          </mxGeometry>
        </mxCell>
        <mxCell id="RxzHx0sFtPPHSch3kArm-110" value="" style="endArrow=none;html=1;rounded=0;entryX=0.5;entryY=1;entryDx=0;entryDy=0;exitX=0.5;exitY=0;exitDx=0;exitDy=0;" edge="1" parent="1" source="RxzHx0sFtPPHSch3kArm-94" target="RxzHx0sFtPPHSch3kArm-102">
          <mxGeometry width="50" height="50" relative="1" as="geometry">
            <mxPoint x="-230" y="650" as="sourcePoint" />
            <mxPoint x="-180" y="600" as="targetPoint" />
          </mxGeometry>
        </mxCell>
        <mxCell id="RxzHx0sFtPPHSch3kArm-111" value="" style="endArrow=none;html=1;rounded=0;entryX=0.024;entryY=0.637;entryDx=0;entryDy=0;entryPerimeter=0;exitX=0.75;exitY=0;exitDx=0;exitDy=0;" edge="1" parent="1" source="RxzHx0sFtPPHSch3kArm-94" target="RxzHx0sFtPPHSch3kArm-103">
          <mxGeometry width="50" height="50" relative="1" as="geometry">
            <mxPoint x="-200" y="650" as="sourcePoint" />
            <mxPoint x="-150" y="600" as="targetPoint" />
          </mxGeometry>
        </mxCell>
        <mxCell id="RxzHx0sFtPPHSch3kArm-112" value="" style="endArrow=none;html=1;rounded=0;entryX=0.017;entryY=0.447;entryDx=0;entryDy=0;entryPerimeter=0;exitX=1;exitY=0.5;exitDx=0;exitDy=0;" edge="1" parent="1" source="RxzHx0sFtPPHSch3kArm-94" target="RxzHx0sFtPPHSch3kArm-106">
          <mxGeometry width="50" height="50" relative="1" as="geometry">
            <mxPoint x="-200" y="710" as="sourcePoint" />
            <mxPoint x="-150" y="660" as="targetPoint" />
          </mxGeometry>
        </mxCell>
        <mxCell id="RxzHx0sFtPPHSch3kArm-113" value="" style="endArrow=none;html=1;rounded=0;entryX=0;entryY=0.5;entryDx=0;entryDy=0;exitX=1;exitY=0;exitDx=0;exitDy=0;" edge="1" parent="1" source="RxzHx0sFtPPHSch3kArm-94" target="RxzHx0sFtPPHSch3kArm-105">
          <mxGeometry width="50" height="50" relative="1" as="geometry">
            <mxPoint x="-200" y="720" as="sourcePoint" />
            <mxPoint x="-150" y="670" as="targetPoint" />
          </mxGeometry>
        </mxCell>
        <mxCell id="RxzHx0sFtPPHSch3kArm-114" value="銷售記錄管理" style="rounded=0;whiteSpace=wrap;html=1;" vertex="1" parent="1">
          <mxGeometry x="-610" y="310" width="120" height="30" as="geometry" />
        </mxCell>
        <mxCell id="RxzHx0sFtPPHSch3kArm-121" value="姓名" style="ellipse;whiteSpace=wrap;html=1;" vertex="1" parent="1">
          <mxGeometry x="-470" y="275" width="60" height="40" as="geometry" />
        </mxCell>
        <mxCell id="RxzHx0sFtPPHSch3kArm-122" value="銷售員編號" style="ellipse;whiteSpace=wrap;html=1;" vertex="1" parent="1">
          <mxGeometry x="-490" y="235" width="70" height="40" as="geometry" />
        </mxCell>
        <mxCell id="RxzHx0sFtPPHSch3kArm-123" value="商品編號" style="ellipse;whiteSpace=wrap;html=1;" vertex="1" parent="1">
          <mxGeometry x="-690" y="275" width="60" height="40" as="geometry" />
        </mxCell>
        <mxCell id="RxzHx0sFtPPHSch3kArm-124" value="商品名稱" style="ellipse;whiteSpace=wrap;html=1;" vertex="1" parent="1">
          <mxGeometry x="-690" y="230" width="60" height="40" as="geometry" />
        </mxCell>
        <mxCell id="RxzHx0sFtPPHSch3kArm-125" value="商品類型" style="ellipse;whiteSpace=wrap;html=1;" vertex="1" parent="1">
          <mxGeometry x="-670" y="190" width="60" height="40" as="geometry" />
        </mxCell>
        <mxCell id="RxzHx0sFtPPHSch3kArm-126" value="商品價格" style="ellipse;whiteSpace=wrap;html=1;" vertex="1" parent="1">
          <mxGeometry x="-590" y="130" width="60" height="40" as="geometry" />
        </mxCell>
        <mxCell id="RxzHx0sFtPPHSch3kArm-127" value="商品規格" style="ellipse;whiteSpace=wrap;html=1;" vertex="1" parent="1">
          <mxGeometry x="-640" y="150" width="60" height="40" as="geometry" />
        </mxCell>
        <mxCell id="RxzHx0sFtPPHSch3kArm-128" value="銷售日期" style="ellipse;whiteSpace=wrap;html=1;" vertex="1" parent="1">
          <mxGeometry x="-460" y="315" width="60" height="40" as="geometry" />
        </mxCell>
        <mxCell id="RxzHx0sFtPPHSch3kArm-129" value="銷售總額" style="ellipse;whiteSpace=wrap;html=1;" vertex="1" parent="1">
          <mxGeometry x="-510" y="195" width="60" height="40" as="geometry" />
        </mxCell>
        <mxCell id="RxzHx0sFtPPHSch3kArm-130" value="銷售數量" style="ellipse;whiteSpace=wrap;html=1;" vertex="1" parent="1">
          <mxGeometry x="-540" y="155" width="60" height="40" as="geometry" />
        </mxCell>
        <mxCell id="RxzHx0sFtPPHSch3kArm-131" value="" style="endArrow=none;html=1;rounded=0;exitX=0;exitY=0.5;exitDx=0;exitDy=0;entryX=0.928;entryY=0.763;entryDx=0;entryDy=0;entryPerimeter=0;" edge="1" parent="1" source="RxzHx0sFtPPHSch3kArm-114" target="RxzHx0sFtPPHSch3kArm-123">
          <mxGeometry width="50" height="50" relative="1" as="geometry">
            <mxPoint x="-690" y="400" as="sourcePoint" />
            <mxPoint x="-630" y="310" as="targetPoint" />
          </mxGeometry>
        </mxCell>
        <mxCell id="RxzHx0sFtPPHSch3kArm-133" value="" style="endArrow=none;html=1;rounded=0;entryX=1;entryY=1;entryDx=0;entryDy=0;exitX=0;exitY=0;exitDx=0;exitDy=0;" edge="1" parent="1" source="RxzHx0sFtPPHSch3kArm-114" target="RxzHx0sFtPPHSch3kArm-124">
          <mxGeometry width="50" height="50" relative="1" as="geometry">
            <mxPoint x="-630" y="320" as="sourcePoint" />
            <mxPoint x="-580" y="270" as="targetPoint" />
          </mxGeometry>
        </mxCell>
        <mxCell id="RxzHx0sFtPPHSch3kArm-134" value="" style="endArrow=none;html=1;rounded=0;entryX=0.808;entryY=0.888;entryDx=0;entryDy=0;entryPerimeter=0;exitX=0.145;exitY=0.003;exitDx=0;exitDy=0;exitPerimeter=0;" edge="1" parent="1" source="RxzHx0sFtPPHSch3kArm-114" target="RxzHx0sFtPPHSch3kArm-125">
          <mxGeometry width="50" height="50" relative="1" as="geometry">
            <mxPoint x="-600" y="320" as="sourcePoint" />
            <mxPoint x="-550" y="270" as="targetPoint" />
          </mxGeometry>
        </mxCell>
        <mxCell id="RxzHx0sFtPPHSch3kArm-135" value="" style="endArrow=none;html=1;rounded=0;entryX=0.665;entryY=0.972;entryDx=0;entryDy=0;entryPerimeter=0;exitX=0.256;exitY=0;exitDx=0;exitDy=0;exitPerimeter=0;" edge="1" parent="1" source="RxzHx0sFtPPHSch3kArm-114" target="RxzHx0sFtPPHSch3kArm-127">
          <mxGeometry width="50" height="50" relative="1" as="geometry">
            <mxPoint x="-600" y="290" as="sourcePoint" />
            <mxPoint x="-550" y="240" as="targetPoint" />
          </mxGeometry>
        </mxCell>
        <mxCell id="RxzHx0sFtPPHSch3kArm-136" value="" style="endArrow=none;html=1;rounded=0;entryX=0.5;entryY=1;entryDx=0;entryDy=0;" edge="1" parent="1" target="RxzHx0sFtPPHSch3kArm-126">
          <mxGeometry width="50" height="50" relative="1" as="geometry">
            <mxPoint x="-560" y="310" as="sourcePoint" />
            <mxPoint x="-550" y="230" as="targetPoint" />
          </mxGeometry>
        </mxCell>
        <mxCell id="RxzHx0sFtPPHSch3kArm-137" value="" style="endArrow=none;html=1;rounded=0;entryX=0.304;entryY=0.963;entryDx=0;entryDy=0;entryPerimeter=0;exitX=0.525;exitY=-0.006;exitDx=0;exitDy=0;exitPerimeter=0;" edge="1" parent="1" source="RxzHx0sFtPPHSch3kArm-114" target="RxzHx0sFtPPHSch3kArm-130">
          <mxGeometry width="50" height="50" relative="1" as="geometry">
            <mxPoint x="-580" y="280" as="sourcePoint" />
            <mxPoint x="-530" y="230" as="targetPoint" />
          </mxGeometry>
        </mxCell>
        <mxCell id="RxzHx0sFtPPHSch3kArm-138" value="" style="endArrow=none;html=1;rounded=0;entryX=0.123;entryY=0.845;entryDx=0;entryDy=0;entryPerimeter=0;exitX=0.637;exitY=0.001;exitDx=0;exitDy=0;exitPerimeter=0;" edge="1" parent="1" source="RxzHx0sFtPPHSch3kArm-114" target="RxzHx0sFtPPHSch3kArm-129">
          <mxGeometry width="50" height="50" relative="1" as="geometry">
            <mxPoint x="-570" y="310" as="sourcePoint" />
            <mxPoint x="-520" y="260" as="targetPoint" />
          </mxGeometry>
        </mxCell>
        <mxCell id="RxzHx0sFtPPHSch3kArm-139" value="" style="endArrow=none;html=1;rounded=0;entryX=0;entryY=1;entryDx=0;entryDy=0;exitX=0.75;exitY=0;exitDx=0;exitDy=0;" edge="1" parent="1" source="RxzHx0sFtPPHSch3kArm-114" target="RxzHx0sFtPPHSch3kArm-122">
          <mxGeometry width="50" height="50" relative="1" as="geometry">
            <mxPoint x="-550" y="310" as="sourcePoint" />
            <mxPoint x="-500" y="260" as="targetPoint" />
          </mxGeometry>
        </mxCell>
        <mxCell id="RxzHx0sFtPPHSch3kArm-140" value="" style="endArrow=none;html=1;rounded=0;entryX=0;entryY=0.5;entryDx=0;entryDy=0;exitX=1;exitY=0;exitDx=0;exitDy=0;" edge="1" parent="1" source="RxzHx0sFtPPHSch3kArm-114" target="RxzHx0sFtPPHSch3kArm-121">
          <mxGeometry width="50" height="50" relative="1" as="geometry">
            <mxPoint x="-530" y="360" as="sourcePoint" />
            <mxPoint x="-480" y="310" as="targetPoint" />
          </mxGeometry>
        </mxCell>
        <mxCell id="RxzHx0sFtPPHSch3kArm-141" value="" style="endArrow=none;html=1;rounded=0;entryX=0;entryY=0.5;entryDx=0;entryDy=0;exitX=1;exitY=0.5;exitDx=0;exitDy=0;" edge="1" parent="1" source="RxzHx0sFtPPHSch3kArm-114" target="RxzHx0sFtPPHSch3kArm-128">
          <mxGeometry width="50" height="50" relative="1" as="geometry">
            <mxPoint x="-530" y="380" as="sourcePoint" />
            <mxPoint x="-480" y="330" as="targetPoint" />
          </mxGeometry>
        </mxCell>
      </root>
    </mxGraphModel>
  </diagram>
</mxfile>
